<mxfile host="app.diagrams.net" modified="2021-07-05T16:56:27.989Z" agent="5.0 (Windows NT 10.0; WOW64) AppleWebKit/537.36 (KHTML, like Gecko) Chrome/83.0.4103.61 Safari/537.36" etag="TY2bQCYZTWg3vcqxghWA" version="14.8.4" type="github">
  <diagram id="m8UY1vIJ39Yx8RvXUSQf" name="第 1 页">
    <mxGraphModel dx="4192" dy="1658" grid="1" gridSize="10" guides="1" tooltips="1" connect="1" arrows="1" fold="1" page="1" pageScale="1" pageWidth="1169" pageHeight="827" background="#F1FAEE" math="0" shadow="0">
      <root>
        <mxCell id="0" />
        <mxCell id="1" parent="0" />
        <mxCell id="vnYy3EDP7MhGooYUGma_-5" value="" style="edgeStyle=orthogonalEdgeStyle;curved=0;rounded=1;sketch=0;orthogonalLoop=1;jettySize=auto;html=1;fontSize=15;fontColor=#1D3557;strokeColor=#457B9D;fillColor=#A8DADC;" edge="1" parent="1" source="vnYy3EDP7MhGooYUGma_-1" target="vnYy3EDP7MhGooYUGma_-2">
          <mxGeometry relative="1" as="geometry" />
        </mxCell>
        <mxCell id="vnYy3EDP7MhGooYUGma_-1" value="&lt;font style=&quot;font-size: 17px&quot;&gt;first&lt;/font&gt;" style="rounded=0;whiteSpace=wrap;html=1;fillColor=#A8DADC;strokeColor=#457B9D;fontColor=#1D3557;fontSize=15;" vertex="1" parent="1">
          <mxGeometry x="350" y="220" width="80" height="40" as="geometry" />
        </mxCell>
        <mxCell id="vnYy3EDP7MhGooYUGma_-7" value="" style="edgeStyle=orthogonalEdgeStyle;curved=0;rounded=1;sketch=0;orthogonalLoop=1;jettySize=auto;html=1;fontSize=15;fontColor=#1D3557;strokeColor=#457B9D;fillColor=#A8DADC;" edge="1" parent="1" source="vnYy3EDP7MhGooYUGma_-2" target="vnYy3EDP7MhGooYUGma_-3">
          <mxGeometry relative="1" as="geometry" />
        </mxCell>
        <mxCell id="vnYy3EDP7MhGooYUGma_-13" style="edgeStyle=orthogonalEdgeStyle;curved=0;rounded=1;sketch=0;orthogonalLoop=1;jettySize=auto;html=1;exitX=0.5;exitY=0;exitDx=0;exitDy=0;entryX=1;entryY=0.5;entryDx=0;entryDy=0;fontSize=15;fontColor=#1D3557;strokeColor=#457B9D;fillColor=#A8DADC;" edge="1" parent="1" source="vnYy3EDP7MhGooYUGma_-2" target="vnYy3EDP7MhGooYUGma_-12">
          <mxGeometry relative="1" as="geometry" />
        </mxCell>
        <mxCell id="vnYy3EDP7MhGooYUGma_-2" value="&lt;span style=&quot;font-size: 17px&quot;&gt;10&lt;/span&gt;" style="rounded=0;whiteSpace=wrap;html=1;fillColor=#A8DADC;strokeColor=#457B9D;fontColor=#1D3557;fontSize=15;" vertex="1" parent="1">
          <mxGeometry x="470" y="220" width="80" height="40" as="geometry" />
        </mxCell>
        <mxCell id="vnYy3EDP7MhGooYUGma_-8" value="" style="edgeStyle=orthogonalEdgeStyle;curved=0;rounded=1;sketch=0;orthogonalLoop=1;jettySize=auto;html=1;fontSize=15;fontColor=#1D3557;strokeColor=#457B9D;fillColor=#A8DADC;" edge="1" parent="1" source="vnYy3EDP7MhGooYUGma_-3" target="vnYy3EDP7MhGooYUGma_-4">
          <mxGeometry relative="1" as="geometry" />
        </mxCell>
        <mxCell id="vnYy3EDP7MhGooYUGma_-14" style="edgeStyle=orthogonalEdgeStyle;curved=0;rounded=1;sketch=0;orthogonalLoop=1;jettySize=auto;html=1;fontSize=15;fontColor=#1D3557;strokeColor=#457B9D;fillColor=#A8DADC;" edge="1" parent="1" source="vnYy3EDP7MhGooYUGma_-3">
          <mxGeometry relative="1" as="geometry">
            <mxPoint x="550" y="240" as="targetPoint" />
          </mxGeometry>
        </mxCell>
        <mxCell id="vnYy3EDP7MhGooYUGma_-3" value="&lt;font style=&quot;font-size: 17px&quot;&gt;12&lt;/font&gt;" style="rounded=0;whiteSpace=wrap;html=1;fillColor=#A8DADC;strokeColor=#457B9D;fontColor=#1D3557;fontSize=15;" vertex="1" parent="1">
          <mxGeometry x="590" y="220" width="80" height="40" as="geometry" />
        </mxCell>
        <mxCell id="vnYy3EDP7MhGooYUGma_-9" value="" style="edgeStyle=orthogonalEdgeStyle;curved=0;rounded=1;sketch=0;orthogonalLoop=1;jettySize=auto;html=1;fontSize=15;fontColor=#1D3557;strokeColor=#457B9D;fillColor=#A8DADC;" edge="1" parent="1" source="vnYy3EDP7MhGooYUGma_-4" target="vnYy3EDP7MhGooYUGma_-6">
          <mxGeometry relative="1" as="geometry" />
        </mxCell>
        <mxCell id="vnYy3EDP7MhGooYUGma_-15" style="edgeStyle=orthogonalEdgeStyle;curved=0;rounded=1;sketch=0;orthogonalLoop=1;jettySize=auto;html=1;entryX=1;entryY=0.5;entryDx=0;entryDy=0;fontSize=15;fontColor=#1D3557;strokeColor=#457B9D;fillColor=#A8DADC;" edge="1" parent="1" source="vnYy3EDP7MhGooYUGma_-4" target="vnYy3EDP7MhGooYUGma_-3">
          <mxGeometry relative="1" as="geometry" />
        </mxCell>
        <mxCell id="vnYy3EDP7MhGooYUGma_-4" value="&lt;font style=&quot;font-size: 17px&quot;&gt;13&lt;/font&gt;" style="rounded=0;whiteSpace=wrap;html=1;fillColor=#A8DADC;strokeColor=#457B9D;fontColor=#1D3557;fontSize=15;" vertex="1" parent="1">
          <mxGeometry x="710" y="220" width="80" height="40" as="geometry" />
        </mxCell>
        <mxCell id="vnYy3EDP7MhGooYUGma_-6" value="&lt;span style=&quot;font-size: 17px&quot;&gt;null&lt;/span&gt;" style="rounded=0;whiteSpace=wrap;html=1;fillColor=#A8DADC;strokeColor=#457B9D;fontColor=#1D3557;fontSize=15;" vertex="1" parent="1">
          <mxGeometry x="830" y="220" width="80" height="40" as="geometry" />
        </mxCell>
        <mxCell id="vnYy3EDP7MhGooYUGma_-11" value="" style="edgeStyle=orthogonalEdgeStyle;curved=0;rounded=1;sketch=0;orthogonalLoop=1;jettySize=auto;html=1;fontSize=15;fontColor=#1D3557;strokeColor=#457B9D;fillColor=#A8DADC;" edge="1" parent="1" source="vnYy3EDP7MhGooYUGma_-10" target="vnYy3EDP7MhGooYUGma_-4">
          <mxGeometry relative="1" as="geometry" />
        </mxCell>
        <mxCell id="vnYy3EDP7MhGooYUGma_-10" value="&lt;font style=&quot;font-size: 17px&quot;&gt;last&lt;br&gt;&lt;/font&gt;" style="rounded=0;whiteSpace=wrap;html=1;fillColor=#A8DADC;strokeColor=#457B9D;fontColor=#1D3557;fontSize=15;" vertex="1" parent="1">
          <mxGeometry x="710" y="140" width="80" height="40" as="geometry" />
        </mxCell>
        <mxCell id="vnYy3EDP7MhGooYUGma_-12" value="&lt;font style=&quot;font-size: 17px&quot;&gt;prev&lt;br&gt;&lt;/font&gt;" style="rounded=0;whiteSpace=wrap;html=1;fillColor=#A8DADC;strokeColor=#457B9D;fontColor=#1D3557;fontSize=15;" vertex="1" parent="1">
          <mxGeometry x="390" y="150" width="80" height="40" as="geometry" />
        </mxCell>
        <mxCell id="vnYy3EDP7MhGooYUGma_-16" value="当前链表" style="text;html=1;align=center;verticalAlign=middle;resizable=0;points=[];autosize=1;strokeColor=none;fontSize=20;fontColor=#1D3557;" vertex="1" parent="1">
          <mxGeometry x="180" y="190" width="100" height="30" as="geometry" />
        </mxCell>
        <mxCell id="vnYy3EDP7MhGooYUGma_-17" value="此时，需要将&lt;b&gt;11&lt;/b&gt;节点添加到链表" style="text;html=1;align=center;verticalAlign=middle;resizable=0;points=[];autosize=1;strokeColor=none;fontSize=20;fontColor=#1D3557;" vertex="1" parent="1">
          <mxGeometry x="435" y="310" width="300" height="30" as="geometry" />
        </mxCell>
        <mxCell id="vnYy3EDP7MhGooYUGma_-18" value="" style="endArrow=none;html=1;fontSize=20;fontColor=#1D3557;strokeColor=#457B9D;fillColor=#A8DADC;entryX=0.476;entryY=1.067;entryDx=0;entryDy=0;entryPerimeter=0;" edge="1" parent="1" target="vnYy3EDP7MhGooYUGma_-17">
          <mxGeometry width="50" height="50" relative="1" as="geometry">
            <mxPoint x="360" y="440" as="sourcePoint" />
            <mxPoint x="540" y="370" as="targetPoint" />
          </mxGeometry>
        </mxCell>
        <mxCell id="vnYy3EDP7MhGooYUGma_-19" value="添加到中间位置" style="edgeLabel;html=1;align=center;verticalAlign=middle;resizable=0;points=[];fontSize=18;fontColor=#1D3557;" vertex="1" connectable="0" parent="vnYy3EDP7MhGooYUGma_-18">
          <mxGeometry x="0.1412" relative="1" as="geometry">
            <mxPoint x="-5" y="-4" as="offset" />
          </mxGeometry>
        </mxCell>
        <mxCell id="vnYy3EDP7MhGooYUGma_-21" value="" style="endArrow=none;html=1;fontSize=17;fontColor=#1D3557;strokeColor=#457B9D;fillColor=#A8DADC;" edge="1" parent="1">
          <mxGeometry width="50" height="50" relative="1" as="geometry">
            <mxPoint x="800" y="440" as="sourcePoint" />
            <mxPoint x="600" y="343" as="targetPoint" />
          </mxGeometry>
        </mxCell>
        <mxCell id="vnYy3EDP7MhGooYUGma_-22" value="添加到头部" style="edgeLabel;html=1;align=center;verticalAlign=middle;resizable=0;points=[];fontSize=17;fontColor=#1D3557;" vertex="1" connectable="0" parent="vnYy3EDP7MhGooYUGma_-21">
          <mxGeometry x="0.0963" relative="1" as="geometry">
            <mxPoint as="offset" />
          </mxGeometry>
        </mxCell>
        <mxCell id="vnYy3EDP7MhGooYUGma_-23" value="" style="edgeStyle=orthogonalEdgeStyle;curved=0;rounded=1;sketch=0;orthogonalLoop=1;jettySize=auto;html=1;fontSize=15;fontColor=#1D3557;strokeColor=#457B9D;fillColor=#A8DADC;" edge="1" parent="1" source="vnYy3EDP7MhGooYUGma_-24" target="vnYy3EDP7MhGooYUGma_-27">
          <mxGeometry relative="1" as="geometry" />
        </mxCell>
        <mxCell id="vnYy3EDP7MhGooYUGma_-24" value="&lt;font style=&quot;font-size: 17px&quot;&gt;first&lt;/font&gt;" style="rounded=0;whiteSpace=wrap;html=1;fillColor=#A8DADC;strokeColor=#457B9D;fontColor=#1D3557;fontSize=15;" vertex="1" parent="1">
          <mxGeometry x="-55" y="635.7999999999998" width="80" height="40" as="geometry" />
        </mxCell>
        <mxCell id="vnYy3EDP7MhGooYUGma_-25" value="" style="edgeStyle=orthogonalEdgeStyle;curved=0;rounded=1;sketch=0;orthogonalLoop=1;jettySize=auto;html=1;fontSize=15;fontColor=#1D3557;strokeColor=#457B9D;fillColor=#A8DADC;" edge="1" parent="1" source="vnYy3EDP7MhGooYUGma_-27" target="vnYy3EDP7MhGooYUGma_-30">
          <mxGeometry relative="1" as="geometry" />
        </mxCell>
        <mxCell id="vnYy3EDP7MhGooYUGma_-361" style="edgeStyle=orthogonalEdgeStyle;curved=0;rounded=1;sketch=0;orthogonalLoop=1;jettySize=auto;html=1;exitX=0.25;exitY=0;exitDx=0;exitDy=0;entryX=1;entryY=0.5;entryDx=0;entryDy=0;fontSize=17;fontColor=#1D3557;strokeColor=#457B9D;fillColor=#A8DADC;" edge="1" parent="1" source="vnYy3EDP7MhGooYUGma_-27" target="vnYy3EDP7MhGooYUGma_-37">
          <mxGeometry relative="1" as="geometry" />
        </mxCell>
        <mxCell id="vnYy3EDP7MhGooYUGma_-362" value="prev" style="edgeLabel;html=1;align=center;verticalAlign=middle;resizable=0;points=[];fontSize=17;fontColor=#1D3557;" vertex="1" connectable="0" parent="vnYy3EDP7MhGooYUGma_-361">
          <mxGeometry x="0.0778" y="2" relative="1" as="geometry">
            <mxPoint as="offset" />
          </mxGeometry>
        </mxCell>
        <mxCell id="vnYy3EDP7MhGooYUGma_-27" value="&lt;span style=&quot;font-size: 17px&quot;&gt;10&lt;/span&gt;" style="rounded=0;whiteSpace=wrap;html=1;fillColor=#A8DADC;strokeColor=#457B9D;fontColor=#1D3557;fontSize=15;" vertex="1" parent="1">
          <mxGeometry x="65" y="635.7999999999998" width="80" height="40" as="geometry" />
        </mxCell>
        <mxCell id="vnYy3EDP7MhGooYUGma_-28" value="" style="edgeStyle=orthogonalEdgeStyle;curved=0;rounded=1;sketch=0;orthogonalLoop=1;jettySize=auto;html=1;fontSize=15;fontColor=#1D3557;strokeColor=#457B9D;fillColor=#A8DADC;" edge="1" parent="1" source="vnYy3EDP7MhGooYUGma_-30" target="vnYy3EDP7MhGooYUGma_-33">
          <mxGeometry relative="1" as="geometry" />
        </mxCell>
        <mxCell id="vnYy3EDP7MhGooYUGma_-29" style="edgeStyle=orthogonalEdgeStyle;curved=0;rounded=1;sketch=0;orthogonalLoop=1;jettySize=auto;html=1;fontSize=15;fontColor=#1D3557;strokeColor=#457B9D;fillColor=#A8DADC;" edge="1" parent="1" source="vnYy3EDP7MhGooYUGma_-30">
          <mxGeometry relative="1" as="geometry">
            <mxPoint x="145" y="655.7999999999998" as="targetPoint" />
          </mxGeometry>
        </mxCell>
        <mxCell id="vnYy3EDP7MhGooYUGma_-30" value="&lt;font style=&quot;font-size: 17px&quot;&gt;12&lt;/font&gt;" style="rounded=0;whiteSpace=wrap;html=1;fillColor=#A8DADC;strokeColor=#457B9D;fontColor=#1D3557;fontSize=15;" vertex="1" parent="1">
          <mxGeometry x="185" y="635.7999999999998" width="80" height="40" as="geometry" />
        </mxCell>
        <mxCell id="vnYy3EDP7MhGooYUGma_-31" value="" style="edgeStyle=orthogonalEdgeStyle;curved=0;rounded=1;sketch=0;orthogonalLoop=1;jettySize=auto;html=1;fontSize=15;fontColor=#1D3557;strokeColor=#457B9D;fillColor=#A8DADC;" edge="1" parent="1" source="vnYy3EDP7MhGooYUGma_-33" target="vnYy3EDP7MhGooYUGma_-34">
          <mxGeometry relative="1" as="geometry" />
        </mxCell>
        <mxCell id="vnYy3EDP7MhGooYUGma_-32" style="edgeStyle=orthogonalEdgeStyle;curved=0;rounded=1;sketch=0;orthogonalLoop=1;jettySize=auto;html=1;entryX=1;entryY=0.5;entryDx=0;entryDy=0;fontSize=15;fontColor=#1D3557;strokeColor=#457B9D;fillColor=#A8DADC;" edge="1" parent="1" source="vnYy3EDP7MhGooYUGma_-33" target="vnYy3EDP7MhGooYUGma_-30">
          <mxGeometry relative="1" as="geometry" />
        </mxCell>
        <mxCell id="vnYy3EDP7MhGooYUGma_-33" value="&lt;font style=&quot;font-size: 17px&quot;&gt;13&lt;/font&gt;" style="rounded=0;whiteSpace=wrap;html=1;fillColor=#A8DADC;strokeColor=#457B9D;fontColor=#1D3557;fontSize=15;" vertex="1" parent="1">
          <mxGeometry x="305" y="635.7999999999998" width="80" height="40" as="geometry" />
        </mxCell>
        <mxCell id="vnYy3EDP7MhGooYUGma_-34" value="&lt;span style=&quot;font-size: 17px&quot;&gt;null&lt;/span&gt;" style="rounded=0;whiteSpace=wrap;html=1;fillColor=#A8DADC;strokeColor=#457B9D;fontColor=#1D3557;fontSize=15;" vertex="1" parent="1">
          <mxGeometry x="425" y="635.7999999999998" width="80" height="40" as="geometry" />
        </mxCell>
        <mxCell id="vnYy3EDP7MhGooYUGma_-35" value="" style="edgeStyle=orthogonalEdgeStyle;curved=0;rounded=1;sketch=0;orthogonalLoop=1;jettySize=auto;html=1;fontSize=15;fontColor=#1D3557;strokeColor=#457B9D;fillColor=#A8DADC;" edge="1" parent="1" source="vnYy3EDP7MhGooYUGma_-36" target="vnYy3EDP7MhGooYUGma_-33">
          <mxGeometry relative="1" as="geometry" />
        </mxCell>
        <mxCell id="vnYy3EDP7MhGooYUGma_-36" value="&lt;font style=&quot;font-size: 17px&quot;&gt;last&lt;br&gt;&lt;/font&gt;" style="rounded=0;whiteSpace=wrap;html=1;fillColor=#A8DADC;strokeColor=#457B9D;fontColor=#1D3557;fontSize=15;" vertex="1" parent="1">
          <mxGeometry x="305" y="555.7999999999998" width="80" height="40" as="geometry" />
        </mxCell>
        <mxCell id="vnYy3EDP7MhGooYUGma_-37" value="&lt;font style=&quot;font-size: 17px&quot;&gt;null&lt;br&gt;&lt;/font&gt;" style="rounded=0;whiteSpace=wrap;html=1;fillColor=#A8DADC;strokeColor=#457B9D;fontColor=#1D3557;fontSize=15;" vertex="1" parent="1">
          <mxGeometry x="-55" y="575.7999999999998" width="80" height="40" as="geometry" />
        </mxCell>
        <mxCell id="vnYy3EDP7MhGooYUGma_-39" value="假设添加到索引为1的位置" style="text;html=1;align=center;verticalAlign=middle;resizable=0;points=[];autosize=1;strokeColor=none;fontSize=17;fontColor=#1D3557;" vertex="1" parent="1">
          <mxGeometry x="75" y="480" width="210" height="30" as="geometry" />
        </mxCell>
        <mxCell id="vnYy3EDP7MhGooYUGma_-42" value="0" style="text;html=1;align=center;verticalAlign=middle;resizable=0;points=[];autosize=1;strokeColor=none;fontSize=17;fontColor=#1D3557;" vertex="1" parent="1">
          <mxGeometry x="90" y="690.7999999999998" width="30" height="30" as="geometry" />
        </mxCell>
        <mxCell id="vnYy3EDP7MhGooYUGma_-54" value="1" style="text;html=1;align=center;verticalAlign=middle;resizable=0;points=[];autosize=1;strokeColor=none;fontSize=17;fontColor=#1D3557;" vertex="1" parent="1">
          <mxGeometry x="210" y="690.7999999999998" width="30" height="30" as="geometry" />
        </mxCell>
        <mxCell id="vnYy3EDP7MhGooYUGma_-55" value="2" style="text;html=1;align=center;verticalAlign=middle;resizable=0;points=[];autosize=1;strokeColor=none;fontSize=17;fontColor=#1D3557;" vertex="1" parent="1">
          <mxGeometry x="330" y="690.7999999999998" width="30" height="30" as="geometry" />
        </mxCell>
        <mxCell id="vnYy3EDP7MhGooYUGma_-61" style="edgeStyle=orthogonalEdgeStyle;curved=0;rounded=1;sketch=0;orthogonalLoop=1;jettySize=auto;html=1;exitX=0.5;exitY=1;exitDx=0;exitDy=0;entryX=0.75;entryY=0;entryDx=0;entryDy=0;fontSize=17;fontColor=#1D3557;strokeColor=#457B9D;fillColor=#A8DADC;" edge="1" parent="1" source="vnYy3EDP7MhGooYUGma_-56" target="vnYy3EDP7MhGooYUGma_-27">
          <mxGeometry relative="1" as="geometry" />
        </mxCell>
        <mxCell id="vnYy3EDP7MhGooYUGma_-56" value="&lt;font style=&quot;font-size: 17px&quot;&gt;pred&lt;/font&gt;" style="rounded=0;whiteSpace=wrap;html=1;fillColor=#A8DADC;strokeColor=#457B9D;fontColor=#1D3557;fontSize=15;" vertex="1" parent="1">
          <mxGeometry x="85" y="525.8" width="80" height="40" as="geometry" />
        </mxCell>
        <mxCell id="vnYy3EDP7MhGooYUGma_-58" value="第一步，pred指向索引为1的上一个节点" style="text;html=1;align=center;verticalAlign=middle;resizable=0;points=[];autosize=1;strokeColor=none;fontSize=17;fontColor=#1D3557;" vertex="1" parent="1">
          <mxGeometry x="-385" y="605.7999999999998" width="310" height="30" as="geometry" />
        </mxCell>
        <mxCell id="vnYy3EDP7MhGooYUGma_-62" value="第二步，新建一个节点，&lt;br&gt;它的prev指向pred，next指向索引为1的节点" style="text;html=1;align=center;verticalAlign=middle;resizable=0;points=[];autosize=1;strokeColor=none;fontSize=17;fontColor=#1D3557;" vertex="1" parent="1">
          <mxGeometry x="-425" y="855.7999999999998" width="350" height="40" as="geometry" />
        </mxCell>
        <mxCell id="vnYy3EDP7MhGooYUGma_-83" value="" style="edgeStyle=orthogonalEdgeStyle;curved=0;rounded=1;sketch=0;orthogonalLoop=1;jettySize=auto;html=1;fontSize=15;fontColor=#1D3557;strokeColor=#457B9D;fillColor=#A8DADC;" edge="1" parent="1" source="vnYy3EDP7MhGooYUGma_-84" target="vnYy3EDP7MhGooYUGma_-86">
          <mxGeometry relative="1" as="geometry" />
        </mxCell>
        <mxCell id="vnYy3EDP7MhGooYUGma_-84" value="&lt;font style=&quot;font-size: 17px&quot;&gt;first&lt;/font&gt;" style="rounded=0;whiteSpace=wrap;html=1;fillColor=#A8DADC;strokeColor=#457B9D;fontColor=#1D3557;fontSize=15;" vertex="1" parent="1">
          <mxGeometry x="-55" y="888.2999999999998" width="80" height="40" as="geometry" />
        </mxCell>
        <mxCell id="vnYy3EDP7MhGooYUGma_-85" value="" style="edgeStyle=orthogonalEdgeStyle;curved=0;rounded=1;sketch=0;orthogonalLoop=1;jettySize=auto;html=1;fontSize=15;fontColor=#1D3557;strokeColor=#457B9D;fillColor=#A8DADC;" edge="1" parent="1" source="vnYy3EDP7MhGooYUGma_-86" target="vnYy3EDP7MhGooYUGma_-89">
          <mxGeometry relative="1" as="geometry" />
        </mxCell>
        <mxCell id="vnYy3EDP7MhGooYUGma_-363" style="edgeStyle=orthogonalEdgeStyle;curved=0;rounded=1;sketch=0;orthogonalLoop=1;jettySize=auto;html=1;exitX=0.25;exitY=0;exitDx=0;exitDy=0;entryX=1;entryY=0.5;entryDx=0;entryDy=0;fontSize=17;fontColor=#1D3557;strokeColor=#457B9D;fillColor=#A8DADC;" edge="1" parent="1" source="vnYy3EDP7MhGooYUGma_-86" target="vnYy3EDP7MhGooYUGma_-97">
          <mxGeometry relative="1" as="geometry" />
        </mxCell>
        <mxCell id="vnYy3EDP7MhGooYUGma_-364" value="prev" style="edgeLabel;html=1;align=center;verticalAlign=middle;resizable=0;points=[];fontSize=17;fontColor=#1D3557;" vertex="1" connectable="0" parent="vnYy3EDP7MhGooYUGma_-363">
          <mxGeometry x="0.0578" y="2" relative="1" as="geometry">
            <mxPoint as="offset" />
          </mxGeometry>
        </mxCell>
        <mxCell id="vnYy3EDP7MhGooYUGma_-86" value="&lt;span style=&quot;font-size: 17px&quot;&gt;10&lt;/span&gt;" style="rounded=0;whiteSpace=wrap;html=1;fillColor=#A8DADC;strokeColor=#457B9D;fontColor=#1D3557;fontSize=15;" vertex="1" parent="1">
          <mxGeometry x="65" y="888.2999999999998" width="80" height="40" as="geometry" />
        </mxCell>
        <mxCell id="vnYy3EDP7MhGooYUGma_-87" value="" style="edgeStyle=orthogonalEdgeStyle;curved=0;rounded=1;sketch=0;orthogonalLoop=1;jettySize=auto;html=1;fontSize=15;fontColor=#1D3557;strokeColor=#457B9D;fillColor=#A8DADC;" edge="1" parent="1" source="vnYy3EDP7MhGooYUGma_-89" target="vnYy3EDP7MhGooYUGma_-92">
          <mxGeometry relative="1" as="geometry" />
        </mxCell>
        <mxCell id="vnYy3EDP7MhGooYUGma_-88" style="edgeStyle=orthogonalEdgeStyle;curved=0;rounded=1;sketch=0;orthogonalLoop=1;jettySize=auto;html=1;fontSize=15;fontColor=#1D3557;strokeColor=#457B9D;fillColor=#A8DADC;" edge="1" parent="1" source="vnYy3EDP7MhGooYUGma_-89">
          <mxGeometry relative="1" as="geometry">
            <mxPoint x="145" y="908.2999999999998" as="targetPoint" />
          </mxGeometry>
        </mxCell>
        <mxCell id="vnYy3EDP7MhGooYUGma_-89" value="&lt;font style=&quot;font-size: 17px&quot;&gt;12&lt;/font&gt;" style="rounded=0;whiteSpace=wrap;html=1;fillColor=#A8DADC;strokeColor=#457B9D;fontColor=#1D3557;fontSize=15;" vertex="1" parent="1">
          <mxGeometry x="185" y="888.2999999999998" width="80" height="40" as="geometry" />
        </mxCell>
        <mxCell id="vnYy3EDP7MhGooYUGma_-90" value="" style="edgeStyle=orthogonalEdgeStyle;curved=0;rounded=1;sketch=0;orthogonalLoop=1;jettySize=auto;html=1;fontSize=15;fontColor=#1D3557;strokeColor=#457B9D;fillColor=#A8DADC;" edge="1" parent="1" source="vnYy3EDP7MhGooYUGma_-92" target="vnYy3EDP7MhGooYUGma_-93">
          <mxGeometry relative="1" as="geometry" />
        </mxCell>
        <mxCell id="vnYy3EDP7MhGooYUGma_-91" style="edgeStyle=orthogonalEdgeStyle;curved=0;rounded=1;sketch=0;orthogonalLoop=1;jettySize=auto;html=1;entryX=1;entryY=0.5;entryDx=0;entryDy=0;fontSize=15;fontColor=#1D3557;strokeColor=#457B9D;fillColor=#A8DADC;" edge="1" parent="1" source="vnYy3EDP7MhGooYUGma_-92" target="vnYy3EDP7MhGooYUGma_-89">
          <mxGeometry relative="1" as="geometry" />
        </mxCell>
        <mxCell id="vnYy3EDP7MhGooYUGma_-92" value="&lt;font style=&quot;font-size: 17px&quot;&gt;13&lt;/font&gt;" style="rounded=0;whiteSpace=wrap;html=1;fillColor=#A8DADC;strokeColor=#457B9D;fontColor=#1D3557;fontSize=15;" vertex="1" parent="1">
          <mxGeometry x="305" y="888.2999999999998" width="80" height="40" as="geometry" />
        </mxCell>
        <mxCell id="vnYy3EDP7MhGooYUGma_-93" value="&lt;span style=&quot;font-size: 17px&quot;&gt;null&lt;/span&gt;" style="rounded=0;whiteSpace=wrap;html=1;fillColor=#A8DADC;strokeColor=#457B9D;fontColor=#1D3557;fontSize=15;" vertex="1" parent="1">
          <mxGeometry x="425" y="888.2999999999998" width="80" height="40" as="geometry" />
        </mxCell>
        <mxCell id="vnYy3EDP7MhGooYUGma_-94" value="" style="edgeStyle=orthogonalEdgeStyle;curved=0;rounded=1;sketch=0;orthogonalLoop=1;jettySize=auto;html=1;fontSize=15;fontColor=#1D3557;strokeColor=#457B9D;fillColor=#A8DADC;" edge="1" parent="1" source="vnYy3EDP7MhGooYUGma_-95" target="vnYy3EDP7MhGooYUGma_-92">
          <mxGeometry relative="1" as="geometry" />
        </mxCell>
        <mxCell id="vnYy3EDP7MhGooYUGma_-95" value="&lt;font style=&quot;font-size: 17px&quot;&gt;last&lt;br&gt;&lt;/font&gt;" style="rounded=0;whiteSpace=wrap;html=1;fillColor=#A8DADC;strokeColor=#457B9D;fontColor=#1D3557;fontSize=15;" vertex="1" parent="1">
          <mxGeometry x="305" y="808.2999999999998" width="80" height="40" as="geometry" />
        </mxCell>
        <mxCell id="vnYy3EDP7MhGooYUGma_-97" value="&lt;font style=&quot;font-size: 17px&quot;&gt;null&lt;br&gt;&lt;/font&gt;" style="rounded=0;whiteSpace=wrap;html=1;fillColor=#A8DADC;strokeColor=#457B9D;fontColor=#1D3557;fontSize=15;" vertex="1" parent="1">
          <mxGeometry x="-55" y="828.2999999999998" width="80" height="40" as="geometry" />
        </mxCell>
        <mxCell id="vnYy3EDP7MhGooYUGma_-98" value="0" style="text;html=1;align=center;verticalAlign=middle;resizable=0;points=[];autosize=1;strokeColor=none;fontSize=17;fontColor=#1D3557;" vertex="1" parent="1">
          <mxGeometry x="90" y="943.2999999999998" width="30" height="30" as="geometry" />
        </mxCell>
        <mxCell id="vnYy3EDP7MhGooYUGma_-99" value="1" style="text;html=1;align=center;verticalAlign=middle;resizable=0;points=[];autosize=1;strokeColor=none;fontSize=17;fontColor=#1D3557;" vertex="1" parent="1">
          <mxGeometry x="210" y="943.2999999999998" width="30" height="30" as="geometry" />
        </mxCell>
        <mxCell id="vnYy3EDP7MhGooYUGma_-100" value="2" style="text;html=1;align=center;verticalAlign=middle;resizable=0;points=[];autosize=1;strokeColor=none;fontSize=17;fontColor=#1D3557;" vertex="1" parent="1">
          <mxGeometry x="330" y="943.2999999999998" width="30" height="30" as="geometry" />
        </mxCell>
        <mxCell id="vnYy3EDP7MhGooYUGma_-107" style="edgeStyle=orthogonalEdgeStyle;curved=0;rounded=1;sketch=0;orthogonalLoop=1;jettySize=auto;html=1;exitX=0.5;exitY=1;exitDx=0;exitDy=0;entryX=0.5;entryY=0;entryDx=0;entryDy=0;fontSize=17;fontColor=#1D3557;strokeColor=#457B9D;fillColor=#A8DADC;" edge="1" parent="1" source="vnYy3EDP7MhGooYUGma_-102" target="vnYy3EDP7MhGooYUGma_-86">
          <mxGeometry relative="1" as="geometry" />
        </mxCell>
        <mxCell id="vnYy3EDP7MhGooYUGma_-102" value="&lt;font style=&quot;font-size: 17px&quot;&gt;pred&lt;/font&gt;" style="rounded=0;whiteSpace=wrap;html=1;fillColor=#A8DADC;strokeColor=#457B9D;fontColor=#1D3557;fontSize=15;" vertex="1" parent="1">
          <mxGeometry x="65" y="778.2999999999998" width="80" height="40" as="geometry" />
        </mxCell>
        <mxCell id="vnYy3EDP7MhGooYUGma_-104" value="" style="edgeStyle=orthogonalEdgeStyle;curved=0;rounded=1;sketch=0;orthogonalLoop=1;jettySize=auto;html=1;fontSize=17;fontColor=#1D3557;strokeColor=#457B9D;fillColor=#A8DADC;" edge="1" parent="1" source="vnYy3EDP7MhGooYUGma_-103" target="vnYy3EDP7MhGooYUGma_-102">
          <mxGeometry relative="1" as="geometry" />
        </mxCell>
        <mxCell id="vnYy3EDP7MhGooYUGma_-105" value="" style="edgeStyle=orthogonalEdgeStyle;curved=0;rounded=1;sketch=0;orthogonalLoop=1;jettySize=auto;html=1;fontSize=17;fontColor=#1D3557;strokeColor=#457B9D;fillColor=#A8DADC;" edge="1" parent="1" source="vnYy3EDP7MhGooYUGma_-103" target="vnYy3EDP7MhGooYUGma_-89">
          <mxGeometry relative="1" as="geometry" />
        </mxCell>
        <mxCell id="vnYy3EDP7MhGooYUGma_-103" value="&lt;span style=&quot;font-size: 17px&quot;&gt;11&lt;/span&gt;" style="rounded=0;whiteSpace=wrap;html=1;fillColor=#A8DADC;strokeColor=#457B9D;fontColor=#1D3557;fontSize=15;" vertex="1" parent="1">
          <mxGeometry x="185" y="778.2999999999998" width="80" height="40" as="geometry" />
        </mxCell>
        <mxCell id="vnYy3EDP7MhGooYUGma_-108" value="第三四步，设置索引1的上一个节点指向newNode,&lt;br&gt;pred的next指向newNode" style="text;html=1;align=center;verticalAlign=middle;resizable=0;points=[];autosize=1;strokeColor=none;fontSize=17;fontColor=#1D3557;" vertex="1" parent="1">
          <mxGeometry x="-455" y="1070.8" width="390" height="40" as="geometry" />
        </mxCell>
        <mxCell id="vnYy3EDP7MhGooYUGma_-109" value="" style="edgeStyle=orthogonalEdgeStyle;curved=0;rounded=1;sketch=0;orthogonalLoop=1;jettySize=auto;html=1;fontSize=15;fontColor=#1D3557;strokeColor=#457B9D;fillColor=#A8DADC;" edge="1" parent="1" source="vnYy3EDP7MhGooYUGma_-110" target="vnYy3EDP7MhGooYUGma_-112">
          <mxGeometry relative="1" as="geometry" />
        </mxCell>
        <mxCell id="vnYy3EDP7MhGooYUGma_-110" value="&lt;font style=&quot;font-size: 17px&quot;&gt;first&lt;/font&gt;" style="rounded=0;whiteSpace=wrap;html=1;fillColor=#A8DADC;strokeColor=#457B9D;fontColor=#1D3557;fontSize=15;" vertex="1" parent="1">
          <mxGeometry x="-55" y="1105.8" width="80" height="40" as="geometry" />
        </mxCell>
        <mxCell id="vnYy3EDP7MhGooYUGma_-111" value="" style="edgeStyle=orthogonalEdgeStyle;curved=0;rounded=1;sketch=0;orthogonalLoop=1;jettySize=auto;html=1;fontSize=15;fontColor=#1D3557;strokeColor=#457B9D;fillColor=#A8DADC;" edge="1" parent="1" source="vnYy3EDP7MhGooYUGma_-112" target="vnYy3EDP7MhGooYUGma_-115">
          <mxGeometry relative="1" as="geometry" />
        </mxCell>
        <mxCell id="vnYy3EDP7MhGooYUGma_-365" style="edgeStyle=orthogonalEdgeStyle;curved=0;rounded=1;sketch=0;orthogonalLoop=1;jettySize=auto;html=1;exitX=0.25;exitY=0;exitDx=0;exitDy=0;entryX=1;entryY=0.5;entryDx=0;entryDy=0;fontSize=17;fontColor=#1D3557;strokeColor=#457B9D;fillColor=#A8DADC;" edge="1" parent="1" source="vnYy3EDP7MhGooYUGma_-112" target="vnYy3EDP7MhGooYUGma_-123">
          <mxGeometry relative="1" as="geometry" />
        </mxCell>
        <mxCell id="vnYy3EDP7MhGooYUGma_-366" value="prev" style="edgeLabel;html=1;align=center;verticalAlign=middle;resizable=0;points=[];fontSize=17;fontColor=#1D3557;" vertex="1" connectable="0" parent="vnYy3EDP7MhGooYUGma_-365">
          <mxGeometry x="0.0778" y="4" relative="1" as="geometry">
            <mxPoint as="offset" />
          </mxGeometry>
        </mxCell>
        <mxCell id="vnYy3EDP7MhGooYUGma_-112" value="&lt;span style=&quot;font-size: 17px&quot;&gt;10&lt;/span&gt;" style="rounded=0;whiteSpace=wrap;html=1;fillColor=#A8DADC;strokeColor=#457B9D;fontColor=#1D3557;fontSize=15;" vertex="1" parent="1">
          <mxGeometry x="65" y="1105.8" width="80" height="40" as="geometry" />
        </mxCell>
        <mxCell id="vnYy3EDP7MhGooYUGma_-113" value="" style="edgeStyle=orthogonalEdgeStyle;curved=0;rounded=1;sketch=0;orthogonalLoop=1;jettySize=auto;html=1;fontSize=15;fontColor=#1D3557;strokeColor=#457B9D;fillColor=#A8DADC;" edge="1" parent="1" source="vnYy3EDP7MhGooYUGma_-115" target="vnYy3EDP7MhGooYUGma_-118">
          <mxGeometry relative="1" as="geometry" />
        </mxCell>
        <mxCell id="vnYy3EDP7MhGooYUGma_-114" style="edgeStyle=orthogonalEdgeStyle;curved=0;rounded=1;sketch=0;orthogonalLoop=1;jettySize=auto;html=1;fontSize=15;fontColor=#1D3557;strokeColor=#457B9D;fillColor=#A8DADC;" edge="1" parent="1" source="vnYy3EDP7MhGooYUGma_-115">
          <mxGeometry relative="1" as="geometry">
            <mxPoint x="145" y="1125.8" as="targetPoint" />
          </mxGeometry>
        </mxCell>
        <mxCell id="vnYy3EDP7MhGooYUGma_-134" style="edgeStyle=orthogonalEdgeStyle;curved=0;rounded=1;sketch=0;orthogonalLoop=1;jettySize=auto;html=1;entryX=0.5;entryY=1;entryDx=0;entryDy=0;fontSize=17;fontColor=#1D3557;strokeColor=#457B9D;fillColor=#A8DADC;" edge="1" parent="1" source="vnYy3EDP7MhGooYUGma_-115" target="vnYy3EDP7MhGooYUGma_-131">
          <mxGeometry relative="1" as="geometry" />
        </mxCell>
        <mxCell id="vnYy3EDP7MhGooYUGma_-115" value="&lt;font style=&quot;font-size: 17px&quot;&gt;12&lt;/font&gt;" style="rounded=0;whiteSpace=wrap;html=1;fillColor=#A8DADC;strokeColor=#457B9D;fontColor=#1D3557;fontSize=15;" vertex="1" parent="1">
          <mxGeometry x="185" y="1105.8" width="80" height="40" as="geometry" />
        </mxCell>
        <mxCell id="vnYy3EDP7MhGooYUGma_-116" value="" style="edgeStyle=orthogonalEdgeStyle;curved=0;rounded=1;sketch=0;orthogonalLoop=1;jettySize=auto;html=1;fontSize=15;fontColor=#1D3557;strokeColor=#457B9D;fillColor=#A8DADC;" edge="1" parent="1" source="vnYy3EDP7MhGooYUGma_-118" target="vnYy3EDP7MhGooYUGma_-119">
          <mxGeometry relative="1" as="geometry" />
        </mxCell>
        <mxCell id="vnYy3EDP7MhGooYUGma_-117" style="edgeStyle=orthogonalEdgeStyle;curved=0;rounded=1;sketch=0;orthogonalLoop=1;jettySize=auto;html=1;entryX=1;entryY=0.5;entryDx=0;entryDy=0;fontSize=15;fontColor=#1D3557;strokeColor=#457B9D;fillColor=#A8DADC;" edge="1" parent="1" source="vnYy3EDP7MhGooYUGma_-118" target="vnYy3EDP7MhGooYUGma_-115">
          <mxGeometry relative="1" as="geometry" />
        </mxCell>
        <mxCell id="vnYy3EDP7MhGooYUGma_-118" value="&lt;font style=&quot;font-size: 17px&quot;&gt;13&lt;/font&gt;" style="rounded=0;whiteSpace=wrap;html=1;fillColor=#A8DADC;strokeColor=#457B9D;fontColor=#1D3557;fontSize=15;" vertex="1" parent="1">
          <mxGeometry x="305" y="1105.8" width="80" height="40" as="geometry" />
        </mxCell>
        <mxCell id="vnYy3EDP7MhGooYUGma_-119" value="&lt;span style=&quot;font-size: 17px&quot;&gt;null&lt;/span&gt;" style="rounded=0;whiteSpace=wrap;html=1;fillColor=#A8DADC;strokeColor=#457B9D;fontColor=#1D3557;fontSize=15;" vertex="1" parent="1">
          <mxGeometry x="425" y="1105.8" width="80" height="40" as="geometry" />
        </mxCell>
        <mxCell id="vnYy3EDP7MhGooYUGma_-120" value="" style="edgeStyle=orthogonalEdgeStyle;curved=0;rounded=1;sketch=0;orthogonalLoop=1;jettySize=auto;html=1;fontSize=15;fontColor=#1D3557;strokeColor=#457B9D;fillColor=#A8DADC;" edge="1" parent="1" source="vnYy3EDP7MhGooYUGma_-121" target="vnYy3EDP7MhGooYUGma_-118">
          <mxGeometry relative="1" as="geometry" />
        </mxCell>
        <mxCell id="vnYy3EDP7MhGooYUGma_-121" value="&lt;font style=&quot;font-size: 17px&quot;&gt;last&lt;br&gt;&lt;/font&gt;" style="rounded=0;whiteSpace=wrap;html=1;fillColor=#A8DADC;strokeColor=#457B9D;fontColor=#1D3557;fontSize=15;" vertex="1" parent="1">
          <mxGeometry x="305" y="1025.7999999999997" width="80" height="40" as="geometry" />
        </mxCell>
        <mxCell id="vnYy3EDP7MhGooYUGma_-123" value="&lt;font style=&quot;font-size: 17px&quot;&gt;null&lt;br&gt;&lt;/font&gt;" style="rounded=0;whiteSpace=wrap;html=1;fillColor=#A8DADC;strokeColor=#457B9D;fontColor=#1D3557;fontSize=15;" vertex="1" parent="1">
          <mxGeometry x="-55" y="1045.7999999999997" width="80" height="40" as="geometry" />
        </mxCell>
        <mxCell id="vnYy3EDP7MhGooYUGma_-124" value="0" style="text;html=1;align=center;verticalAlign=middle;resizable=0;points=[];autosize=1;strokeColor=none;fontSize=17;fontColor=#1D3557;" vertex="1" parent="1">
          <mxGeometry x="90" y="1160.8" width="30" height="30" as="geometry" />
        </mxCell>
        <mxCell id="vnYy3EDP7MhGooYUGma_-125" value="1" style="text;html=1;align=center;verticalAlign=middle;resizable=0;points=[];autosize=1;strokeColor=none;fontSize=17;fontColor=#1D3557;" vertex="1" parent="1">
          <mxGeometry x="210" y="1160.8" width="30" height="30" as="geometry" />
        </mxCell>
        <mxCell id="vnYy3EDP7MhGooYUGma_-126" value="2" style="text;html=1;align=center;verticalAlign=middle;resizable=0;points=[];autosize=1;strokeColor=none;fontSize=17;fontColor=#1D3557;" vertex="1" parent="1">
          <mxGeometry x="330" y="1160.8" width="30" height="30" as="geometry" />
        </mxCell>
        <mxCell id="vnYy3EDP7MhGooYUGma_-127" style="edgeStyle=orthogonalEdgeStyle;curved=0;rounded=1;sketch=0;orthogonalLoop=1;jettySize=auto;html=1;exitX=0.5;exitY=1;exitDx=0;exitDy=0;entryX=0.5;entryY=0;entryDx=0;entryDy=0;fontSize=17;fontColor=#1D3557;strokeColor=#457B9D;fillColor=#A8DADC;" edge="1" parent="1" source="vnYy3EDP7MhGooYUGma_-128" target="vnYy3EDP7MhGooYUGma_-112">
          <mxGeometry relative="1" as="geometry" />
        </mxCell>
        <mxCell id="vnYy3EDP7MhGooYUGma_-135" style="edgeStyle=orthogonalEdgeStyle;curved=0;rounded=1;sketch=0;orthogonalLoop=1;jettySize=auto;html=1;exitX=1;exitY=0.5;exitDx=0;exitDy=0;fontSize=17;fontColor=#1D3557;strokeColor=#457B9D;fillColor=#A8DADC;" edge="1" parent="1" source="vnYy3EDP7MhGooYUGma_-128" target="vnYy3EDP7MhGooYUGma_-131">
          <mxGeometry relative="1" as="geometry" />
        </mxCell>
        <mxCell id="vnYy3EDP7MhGooYUGma_-128" value="&lt;font style=&quot;font-size: 17px&quot;&gt;pred&lt;/font&gt;" style="rounded=0;whiteSpace=wrap;html=1;fillColor=#A8DADC;strokeColor=#457B9D;fontColor=#1D3557;fontSize=15;" vertex="1" parent="1">
          <mxGeometry x="65" y="995.7999999999998" width="80" height="40" as="geometry" />
        </mxCell>
        <mxCell id="vnYy3EDP7MhGooYUGma_-129" value="" style="edgeStyle=orthogonalEdgeStyle;curved=0;rounded=1;sketch=0;orthogonalLoop=1;jettySize=auto;html=1;fontSize=17;fontColor=#1D3557;strokeColor=#457B9D;fillColor=#A8DADC;" edge="1" parent="1" source="vnYy3EDP7MhGooYUGma_-131" target="vnYy3EDP7MhGooYUGma_-128">
          <mxGeometry relative="1" as="geometry" />
        </mxCell>
        <mxCell id="vnYy3EDP7MhGooYUGma_-130" value="" style="edgeStyle=orthogonalEdgeStyle;curved=0;rounded=1;sketch=0;orthogonalLoop=1;jettySize=auto;html=1;fontSize=17;fontColor=#1D3557;strokeColor=#457B9D;fillColor=#A8DADC;" edge="1" parent="1" source="vnYy3EDP7MhGooYUGma_-131" target="vnYy3EDP7MhGooYUGma_-115">
          <mxGeometry relative="1" as="geometry" />
        </mxCell>
        <mxCell id="vnYy3EDP7MhGooYUGma_-131" value="&lt;span style=&quot;font-size: 17px&quot;&gt;11&lt;/span&gt;" style="rounded=0;whiteSpace=wrap;html=1;fillColor=#A8DADC;strokeColor=#457B9D;fontColor=#1D3557;fontSize=15;" vertex="1" parent="1">
          <mxGeometry x="185" y="995.7999999999998" width="80" height="40" as="geometry" />
        </mxCell>
        <mxCell id="vnYy3EDP7MhGooYUGma_-137" value="" style="edgeStyle=orthogonalEdgeStyle;curved=0;rounded=1;sketch=0;orthogonalLoop=1;jettySize=auto;html=1;fontSize=15;fontColor=#1D3557;strokeColor=#457B9D;fillColor=#A8DADC;" edge="1" parent="1" source="vnYy3EDP7MhGooYUGma_-138" target="vnYy3EDP7MhGooYUGma_-140">
          <mxGeometry relative="1" as="geometry" />
        </mxCell>
        <mxCell id="vnYy3EDP7MhGooYUGma_-138" value="&lt;font style=&quot;font-size: 17px&quot;&gt;first&lt;/font&gt;" style="rounded=0;whiteSpace=wrap;html=1;fillColor=#A8DADC;strokeColor=#457B9D;fontColor=#1D3557;fontSize=15;" vertex="1" parent="1">
          <mxGeometry x="-75" y="1295.8" width="80" height="40" as="geometry" />
        </mxCell>
        <mxCell id="vnYy3EDP7MhGooYUGma_-164" style="edgeStyle=orthogonalEdgeStyle;curved=0;rounded=1;sketch=0;orthogonalLoop=1;jettySize=auto;html=1;exitX=1;exitY=0.5;exitDx=0;exitDy=0;entryX=0;entryY=0.5;entryDx=0;entryDy=0;fontSize=17;fontColor=#1D3557;strokeColor=#457B9D;fillColor=#A8DADC;" edge="1" parent="1" source="vnYy3EDP7MhGooYUGma_-140" target="vnYy3EDP7MhGooYUGma_-161">
          <mxGeometry relative="1" as="geometry" />
        </mxCell>
        <mxCell id="vnYy3EDP7MhGooYUGma_-367" style="edgeStyle=orthogonalEdgeStyle;curved=0;rounded=1;sketch=0;orthogonalLoop=1;jettySize=auto;html=1;exitX=0.25;exitY=0;exitDx=0;exitDy=0;entryX=1;entryY=0.25;entryDx=0;entryDy=0;fontSize=17;fontColor=#1D3557;strokeColor=#457B9D;fillColor=#A8DADC;" edge="1" parent="1" source="vnYy3EDP7MhGooYUGma_-140" target="vnYy3EDP7MhGooYUGma_-152">
          <mxGeometry relative="1" as="geometry" />
        </mxCell>
        <mxCell id="vnYy3EDP7MhGooYUGma_-368" value="prev" style="edgeLabel;html=1;align=center;verticalAlign=middle;resizable=0;points=[];fontSize=17;fontColor=#1D3557;" vertex="1" connectable="0" parent="vnYy3EDP7MhGooYUGma_-367">
          <mxGeometry x="0.198" relative="1" as="geometry">
            <mxPoint as="offset" />
          </mxGeometry>
        </mxCell>
        <mxCell id="vnYy3EDP7MhGooYUGma_-140" value="&lt;span style=&quot;font-size: 17px&quot;&gt;10&lt;/span&gt;" style="rounded=0;whiteSpace=wrap;html=1;fillColor=#A8DADC;strokeColor=#457B9D;fontColor=#1D3557;fontSize=15;" vertex="1" parent="1">
          <mxGeometry x="45" y="1295.8" width="80" height="40" as="geometry" />
        </mxCell>
        <mxCell id="vnYy3EDP7MhGooYUGma_-141" value="" style="edgeStyle=orthogonalEdgeStyle;curved=0;rounded=1;sketch=0;orthogonalLoop=1;jettySize=auto;html=1;fontSize=15;fontColor=#1D3557;strokeColor=#457B9D;fillColor=#A8DADC;" edge="1" parent="1" source="vnYy3EDP7MhGooYUGma_-144" target="vnYy3EDP7MhGooYUGma_-147">
          <mxGeometry relative="1" as="geometry" />
        </mxCell>
        <mxCell id="vnYy3EDP7MhGooYUGma_-163" style="edgeStyle=orthogonalEdgeStyle;curved=0;rounded=1;sketch=0;orthogonalLoop=1;jettySize=auto;html=1;entryX=1;entryY=0.5;entryDx=0;entryDy=0;fontSize=17;fontColor=#1D3557;strokeColor=#457B9D;fillColor=#A8DADC;" edge="1" parent="1" source="vnYy3EDP7MhGooYUGma_-144" target="vnYy3EDP7MhGooYUGma_-161">
          <mxGeometry relative="1" as="geometry" />
        </mxCell>
        <mxCell id="vnYy3EDP7MhGooYUGma_-144" value="&lt;font style=&quot;font-size: 17px&quot;&gt;12&lt;/font&gt;" style="rounded=0;whiteSpace=wrap;html=1;fillColor=#A8DADC;strokeColor=#457B9D;fontColor=#1D3557;fontSize=15;" vertex="1" parent="1">
          <mxGeometry x="275" y="1295.8" width="80" height="40" as="geometry" />
        </mxCell>
        <mxCell id="vnYy3EDP7MhGooYUGma_-145" value="" style="edgeStyle=orthogonalEdgeStyle;curved=0;rounded=1;sketch=0;orthogonalLoop=1;jettySize=auto;html=1;fontSize=15;fontColor=#1D3557;strokeColor=#457B9D;fillColor=#A8DADC;" edge="1" parent="1" source="vnYy3EDP7MhGooYUGma_-147" target="vnYy3EDP7MhGooYUGma_-148">
          <mxGeometry relative="1" as="geometry" />
        </mxCell>
        <mxCell id="vnYy3EDP7MhGooYUGma_-146" style="edgeStyle=orthogonalEdgeStyle;curved=0;rounded=1;sketch=0;orthogonalLoop=1;jettySize=auto;html=1;entryX=1;entryY=0.5;entryDx=0;entryDy=0;fontSize=15;fontColor=#1D3557;strokeColor=#457B9D;fillColor=#A8DADC;" edge="1" parent="1" source="vnYy3EDP7MhGooYUGma_-147" target="vnYy3EDP7MhGooYUGma_-144">
          <mxGeometry relative="1" as="geometry" />
        </mxCell>
        <mxCell id="vnYy3EDP7MhGooYUGma_-147" value="&lt;font style=&quot;font-size: 17px&quot;&gt;13&lt;/font&gt;" style="rounded=0;whiteSpace=wrap;html=1;fillColor=#A8DADC;strokeColor=#457B9D;fontColor=#1D3557;fontSize=15;" vertex="1" parent="1">
          <mxGeometry x="395" y="1295.8" width="80" height="40" as="geometry" />
        </mxCell>
        <mxCell id="vnYy3EDP7MhGooYUGma_-148" value="&lt;span style=&quot;font-size: 17px&quot;&gt;null&lt;/span&gt;" style="rounded=0;whiteSpace=wrap;html=1;fillColor=#A8DADC;strokeColor=#457B9D;fontColor=#1D3557;fontSize=15;" vertex="1" parent="1">
          <mxGeometry x="505" y="1295.8" width="80" height="40" as="geometry" />
        </mxCell>
        <mxCell id="vnYy3EDP7MhGooYUGma_-149" value="" style="edgeStyle=orthogonalEdgeStyle;curved=0;rounded=1;sketch=0;orthogonalLoop=1;jettySize=auto;html=1;fontSize=15;fontColor=#1D3557;strokeColor=#457B9D;fillColor=#A8DADC;" edge="1" parent="1" source="vnYy3EDP7MhGooYUGma_-150" target="vnYy3EDP7MhGooYUGma_-147">
          <mxGeometry relative="1" as="geometry" />
        </mxCell>
        <mxCell id="vnYy3EDP7MhGooYUGma_-150" value="&lt;font style=&quot;font-size: 17px&quot;&gt;last&lt;br&gt;&lt;/font&gt;" style="rounded=0;whiteSpace=wrap;html=1;fillColor=#A8DADC;strokeColor=#457B9D;fontColor=#1D3557;fontSize=15;" vertex="1" parent="1">
          <mxGeometry x="395" y="1215.8" width="80" height="40" as="geometry" />
        </mxCell>
        <mxCell id="vnYy3EDP7MhGooYUGma_-152" value="&lt;font style=&quot;font-size: 17px&quot;&gt;null&lt;br&gt;&lt;/font&gt;" style="rounded=0;whiteSpace=wrap;html=1;fillColor=#A8DADC;strokeColor=#457B9D;fontColor=#1D3557;fontSize=15;" vertex="1" parent="1">
          <mxGeometry x="-75" y="1235.8" width="80" height="40" as="geometry" />
        </mxCell>
        <mxCell id="vnYy3EDP7MhGooYUGma_-153" value="0" style="text;html=1;align=center;verticalAlign=middle;resizable=0;points=[];autosize=1;strokeColor=none;fontSize=17;fontColor=#1D3557;" vertex="1" parent="1">
          <mxGeometry x="70" y="1350.8" width="30" height="30" as="geometry" />
        </mxCell>
        <mxCell id="vnYy3EDP7MhGooYUGma_-154" value="1" style="text;html=1;align=center;verticalAlign=middle;resizable=0;points=[];autosize=1;strokeColor=none;fontSize=17;fontColor=#1D3557;" vertex="1" parent="1">
          <mxGeometry x="190" y="1350.8" width="30" height="30" as="geometry" />
        </mxCell>
        <mxCell id="vnYy3EDP7MhGooYUGma_-155" value="2" style="text;html=1;align=center;verticalAlign=middle;resizable=0;points=[];autosize=1;strokeColor=none;fontSize=17;fontColor=#1D3557;" vertex="1" parent="1">
          <mxGeometry x="305" y="1350.8" width="30" height="30" as="geometry" />
        </mxCell>
        <mxCell id="vnYy3EDP7MhGooYUGma_-162" style="edgeStyle=orthogonalEdgeStyle;curved=0;rounded=1;sketch=0;orthogonalLoop=1;jettySize=auto;html=1;exitX=1;exitY=0.5;exitDx=0;exitDy=0;entryX=0;entryY=0.5;entryDx=0;entryDy=0;fontSize=17;fontColor=#1D3557;strokeColor=#457B9D;fillColor=#A8DADC;" edge="1" parent="1" source="vnYy3EDP7MhGooYUGma_-161" target="vnYy3EDP7MhGooYUGma_-144">
          <mxGeometry relative="1" as="geometry" />
        </mxCell>
        <mxCell id="vnYy3EDP7MhGooYUGma_-165" style="edgeStyle=orthogonalEdgeStyle;curved=0;rounded=1;sketch=0;orthogonalLoop=1;jettySize=auto;html=1;exitX=0;exitY=0.5;exitDx=0;exitDy=0;entryX=1;entryY=0.5;entryDx=0;entryDy=0;fontSize=17;fontColor=#1D3557;strokeColor=#457B9D;fillColor=#A8DADC;" edge="1" parent="1" source="vnYy3EDP7MhGooYUGma_-161" target="vnYy3EDP7MhGooYUGma_-140">
          <mxGeometry relative="1" as="geometry" />
        </mxCell>
        <mxCell id="vnYy3EDP7MhGooYUGma_-161" value="&lt;span style=&quot;font-size: 17px&quot;&gt;11&lt;/span&gt;" style="rounded=0;whiteSpace=wrap;html=1;fillColor=#A8DADC;strokeColor=#457B9D;fontColor=#1D3557;fontSize=15;" vertex="1" parent="1">
          <mxGeometry x="165" y="1295.8" width="80" height="40" as="geometry" />
        </mxCell>
        <mxCell id="vnYy3EDP7MhGooYUGma_-166" value="3" style="text;html=1;align=center;verticalAlign=middle;resizable=0;points=[];autosize=1;strokeColor=none;fontSize=17;fontColor=#1D3557;" vertex="1" parent="1">
          <mxGeometry x="420" y="1350.8" width="30" height="30" as="geometry" />
        </mxCell>
        <mxCell id="vnYy3EDP7MhGooYUGma_-260" value="" style="edgeStyle=orthogonalEdgeStyle;curved=0;rounded=1;sketch=0;orthogonalLoop=1;jettySize=auto;html=1;fontSize=15;fontColor=#1D3557;strokeColor=#457B9D;fillColor=#A8DADC;" edge="1" parent="1" source="vnYy3EDP7MhGooYUGma_-261" target="vnYy3EDP7MhGooYUGma_-263">
          <mxGeometry relative="1" as="geometry" />
        </mxCell>
        <mxCell id="vnYy3EDP7MhGooYUGma_-261" value="&lt;font style=&quot;font-size: 17px&quot;&gt;first&lt;/font&gt;" style="rounded=0;whiteSpace=wrap;html=1;fillColor=#A8DADC;strokeColor=#457B9D;fontColor=#1D3557;fontSize=15;" vertex="1" parent="1">
          <mxGeometry x="680" y="664.18" width="80" height="40" as="geometry" />
        </mxCell>
        <mxCell id="vnYy3EDP7MhGooYUGma_-262" value="" style="edgeStyle=orthogonalEdgeStyle;curved=0;rounded=1;sketch=0;orthogonalLoop=1;jettySize=auto;html=1;fontSize=15;fontColor=#1D3557;strokeColor=#457B9D;fillColor=#A8DADC;" edge="1" parent="1" source="vnYy3EDP7MhGooYUGma_-263" target="vnYy3EDP7MhGooYUGma_-266">
          <mxGeometry relative="1" as="geometry" />
        </mxCell>
        <mxCell id="vnYy3EDP7MhGooYUGma_-355" style="edgeStyle=orthogonalEdgeStyle;curved=0;rounded=1;sketch=0;orthogonalLoop=1;jettySize=auto;html=1;exitX=0.5;exitY=0;exitDx=0;exitDy=0;entryX=1;entryY=0.5;entryDx=0;entryDy=0;fontSize=17;fontColor=#1D3557;strokeColor=#457B9D;fillColor=#A8DADC;" edge="1" parent="1" source="vnYy3EDP7MhGooYUGma_-263" target="vnYy3EDP7MhGooYUGma_-354">
          <mxGeometry relative="1" as="geometry" />
        </mxCell>
        <mxCell id="vnYy3EDP7MhGooYUGma_-356" value="prev" style="edgeLabel;html=1;align=center;verticalAlign=middle;resizable=0;points=[];fontSize=17;fontColor=#1D3557;" vertex="1" connectable="0" parent="vnYy3EDP7MhGooYUGma_-355">
          <mxGeometry x="0.1556" y="-4" relative="1" as="geometry">
            <mxPoint as="offset" />
          </mxGeometry>
        </mxCell>
        <mxCell id="vnYy3EDP7MhGooYUGma_-263" value="&lt;span style=&quot;font-size: 17px&quot;&gt;10&lt;/span&gt;" style="rounded=0;whiteSpace=wrap;html=1;fillColor=#A8DADC;strokeColor=#457B9D;fontColor=#1D3557;fontSize=15;" vertex="1" parent="1">
          <mxGeometry x="800" y="664.18" width="80" height="40" as="geometry" />
        </mxCell>
        <mxCell id="vnYy3EDP7MhGooYUGma_-264" value="" style="edgeStyle=orthogonalEdgeStyle;curved=0;rounded=1;sketch=0;orthogonalLoop=1;jettySize=auto;html=1;fontSize=15;fontColor=#1D3557;strokeColor=#457B9D;fillColor=#A8DADC;" edge="1" parent="1" source="vnYy3EDP7MhGooYUGma_-266" target="vnYy3EDP7MhGooYUGma_-269">
          <mxGeometry relative="1" as="geometry" />
        </mxCell>
        <mxCell id="vnYy3EDP7MhGooYUGma_-265" style="edgeStyle=orthogonalEdgeStyle;curved=0;rounded=1;sketch=0;orthogonalLoop=1;jettySize=auto;html=1;fontSize=15;fontColor=#1D3557;strokeColor=#457B9D;fillColor=#A8DADC;" edge="1" parent="1" source="vnYy3EDP7MhGooYUGma_-266">
          <mxGeometry relative="1" as="geometry">
            <mxPoint x="880" y="684.18" as="targetPoint" />
          </mxGeometry>
        </mxCell>
        <mxCell id="vnYy3EDP7MhGooYUGma_-266" value="&lt;font style=&quot;font-size: 17px&quot;&gt;12&lt;/font&gt;" style="rounded=0;whiteSpace=wrap;html=1;fillColor=#A8DADC;strokeColor=#457B9D;fontColor=#1D3557;fontSize=15;" vertex="1" parent="1">
          <mxGeometry x="920" y="664.18" width="80" height="40" as="geometry" />
        </mxCell>
        <mxCell id="vnYy3EDP7MhGooYUGma_-267" value="" style="edgeStyle=orthogonalEdgeStyle;curved=0;rounded=1;sketch=0;orthogonalLoop=1;jettySize=auto;html=1;fontSize=15;fontColor=#1D3557;strokeColor=#457B9D;fillColor=#A8DADC;" edge="1" parent="1" source="vnYy3EDP7MhGooYUGma_-269" target="vnYy3EDP7MhGooYUGma_-270">
          <mxGeometry relative="1" as="geometry" />
        </mxCell>
        <mxCell id="vnYy3EDP7MhGooYUGma_-268" style="edgeStyle=orthogonalEdgeStyle;curved=0;rounded=1;sketch=0;orthogonalLoop=1;jettySize=auto;html=1;entryX=1;entryY=0.5;entryDx=0;entryDy=0;fontSize=15;fontColor=#1D3557;strokeColor=#457B9D;fillColor=#A8DADC;" edge="1" parent="1" source="vnYy3EDP7MhGooYUGma_-269" target="vnYy3EDP7MhGooYUGma_-266">
          <mxGeometry relative="1" as="geometry" />
        </mxCell>
        <mxCell id="vnYy3EDP7MhGooYUGma_-269" value="&lt;font style=&quot;font-size: 17px&quot;&gt;13&lt;/font&gt;" style="rounded=0;whiteSpace=wrap;html=1;fillColor=#A8DADC;strokeColor=#457B9D;fontColor=#1D3557;fontSize=15;" vertex="1" parent="1">
          <mxGeometry x="1040" y="664.18" width="80" height="40" as="geometry" />
        </mxCell>
        <mxCell id="vnYy3EDP7MhGooYUGma_-270" value="&lt;span style=&quot;font-size: 17px&quot;&gt;null&lt;/span&gt;" style="rounded=0;whiteSpace=wrap;html=1;fillColor=#A8DADC;strokeColor=#457B9D;fontColor=#1D3557;fontSize=15;" vertex="1" parent="1">
          <mxGeometry x="1160" y="664.18" width="80" height="40" as="geometry" />
        </mxCell>
        <mxCell id="vnYy3EDP7MhGooYUGma_-271" value="" style="edgeStyle=orthogonalEdgeStyle;curved=0;rounded=1;sketch=0;orthogonalLoop=1;jettySize=auto;html=1;fontSize=15;fontColor=#1D3557;strokeColor=#457B9D;fillColor=#A8DADC;" edge="1" parent="1" source="vnYy3EDP7MhGooYUGma_-272" target="vnYy3EDP7MhGooYUGma_-269">
          <mxGeometry relative="1" as="geometry" />
        </mxCell>
        <mxCell id="vnYy3EDP7MhGooYUGma_-272" value="&lt;font style=&quot;font-size: 17px&quot;&gt;last&lt;br&gt;&lt;/font&gt;" style="rounded=0;whiteSpace=wrap;html=1;fillColor=#A8DADC;strokeColor=#457B9D;fontColor=#1D3557;fontSize=15;" vertex="1" parent="1">
          <mxGeometry x="1040" y="584.18" width="80" height="40" as="geometry" />
        </mxCell>
        <mxCell id="vnYy3EDP7MhGooYUGma_-276" value="0" style="text;html=1;align=center;verticalAlign=middle;resizable=0;points=[];autosize=1;strokeColor=none;fontSize=17;fontColor=#1D3557;" vertex="1" parent="1">
          <mxGeometry x="825" y="719.18" width="30" height="30" as="geometry" />
        </mxCell>
        <mxCell id="vnYy3EDP7MhGooYUGma_-277" value="1" style="text;html=1;align=center;verticalAlign=middle;resizable=0;points=[];autosize=1;strokeColor=none;fontSize=17;fontColor=#1D3557;" vertex="1" parent="1">
          <mxGeometry x="945" y="719.18" width="30" height="30" as="geometry" />
        </mxCell>
        <mxCell id="vnYy3EDP7MhGooYUGma_-278" value="2" style="text;html=1;align=center;verticalAlign=middle;resizable=0;points=[];autosize=1;strokeColor=none;fontSize=17;fontColor=#1D3557;" vertex="1" parent="1">
          <mxGeometry x="1065" y="719.18" width="30" height="30" as="geometry" />
        </mxCell>
        <mxCell id="vnYy3EDP7MhGooYUGma_-369" value="" style="edgeStyle=orthogonalEdgeStyle;curved=0;rounded=1;sketch=0;orthogonalLoop=1;jettySize=auto;html=1;fontSize=17;fontColor=#1D3557;strokeColor=#457B9D;fillColor=#A8DADC;" edge="1" parent="1" source="vnYy3EDP7MhGooYUGma_-280" target="vnYy3EDP7MhGooYUGma_-354">
          <mxGeometry relative="1" as="geometry" />
        </mxCell>
        <mxCell id="vnYy3EDP7MhGooYUGma_-280" value="&lt;font style=&quot;font-size: 17px&quot;&gt;pred&lt;/font&gt;" style="rounded=0;whiteSpace=wrap;html=1;fillColor=#A8DADC;strokeColor=#457B9D;fontColor=#1D3557;fontSize=15;" vertex="1" parent="1">
          <mxGeometry x="680" y="534.18" width="80" height="40" as="geometry" />
        </mxCell>
        <mxCell id="vnYy3EDP7MhGooYUGma_-282" value="第二步，新建一个节点，&lt;br&gt;它的prev指向pred，next指向索引为0的节点" style="text;html=1;align=center;verticalAlign=middle;resizable=0;points=[];autosize=1;strokeColor=none;fontSize=17;fontColor=#1D3557;" vertex="1" parent="1">
          <mxGeometry x="1390" y="876.18" width="350" height="40" as="geometry" />
        </mxCell>
        <mxCell id="vnYy3EDP7MhGooYUGma_-283" value="" style="edgeStyle=orthogonalEdgeStyle;curved=0;rounded=1;sketch=0;orthogonalLoop=1;jettySize=auto;html=1;fontSize=15;fontColor=#1D3557;strokeColor=#457B9D;fillColor=#A8DADC;" edge="1" parent="1" source="vnYy3EDP7MhGooYUGma_-284" target="vnYy3EDP7MhGooYUGma_-286">
          <mxGeometry relative="1" as="geometry" />
        </mxCell>
        <mxCell id="vnYy3EDP7MhGooYUGma_-284" value="&lt;font style=&quot;font-size: 17px&quot;&gt;first&lt;/font&gt;" style="rounded=0;whiteSpace=wrap;html=1;fillColor=#A8DADC;strokeColor=#457B9D;fontColor=#1D3557;fontSize=15;" vertex="1" parent="1">
          <mxGeometry x="680" y="916.68" width="80" height="40" as="geometry" />
        </mxCell>
        <mxCell id="vnYy3EDP7MhGooYUGma_-285" value="" style="edgeStyle=orthogonalEdgeStyle;curved=0;rounded=1;sketch=0;orthogonalLoop=1;jettySize=auto;html=1;fontSize=15;fontColor=#1D3557;strokeColor=#457B9D;fillColor=#A8DADC;" edge="1" parent="1" source="vnYy3EDP7MhGooYUGma_-286" target="vnYy3EDP7MhGooYUGma_-289">
          <mxGeometry relative="1" as="geometry" />
        </mxCell>
        <mxCell id="vnYy3EDP7MhGooYUGma_-373" style="edgeStyle=orthogonalEdgeStyle;curved=0;rounded=1;sketch=0;orthogonalLoop=1;jettySize=auto;html=1;exitX=0.25;exitY=0;exitDx=0;exitDy=0;entryX=1;entryY=0.5;entryDx=0;entryDy=0;fontSize=17;fontColor=#1D3557;strokeColor=#457B9D;fillColor=#A8DADC;" edge="1" parent="1" source="vnYy3EDP7MhGooYUGma_-286" target="vnYy3EDP7MhGooYUGma_-297">
          <mxGeometry relative="1" as="geometry" />
        </mxCell>
        <mxCell id="vnYy3EDP7MhGooYUGma_-374" value="prev" style="edgeLabel;html=1;align=center;verticalAlign=middle;resizable=0;points=[];fontSize=17;fontColor=#1D3557;" vertex="1" connectable="0" parent="vnYy3EDP7MhGooYUGma_-373">
          <mxGeometry x="0.1067" y="3" relative="1" as="geometry">
            <mxPoint as="offset" />
          </mxGeometry>
        </mxCell>
        <mxCell id="vnYy3EDP7MhGooYUGma_-286" value="&lt;span style=&quot;font-size: 17px&quot;&gt;10&lt;/span&gt;" style="rounded=0;whiteSpace=wrap;html=1;fillColor=#A8DADC;strokeColor=#457B9D;fontColor=#1D3557;fontSize=15;" vertex="1" parent="1">
          <mxGeometry x="800" y="916.68" width="80" height="40" as="geometry" />
        </mxCell>
        <mxCell id="vnYy3EDP7MhGooYUGma_-287" value="" style="edgeStyle=orthogonalEdgeStyle;curved=0;rounded=1;sketch=0;orthogonalLoop=1;jettySize=auto;html=1;fontSize=15;fontColor=#1D3557;strokeColor=#457B9D;fillColor=#A8DADC;" edge="1" parent="1" source="vnYy3EDP7MhGooYUGma_-289" target="vnYy3EDP7MhGooYUGma_-292">
          <mxGeometry relative="1" as="geometry" />
        </mxCell>
        <mxCell id="vnYy3EDP7MhGooYUGma_-288" style="edgeStyle=orthogonalEdgeStyle;curved=0;rounded=1;sketch=0;orthogonalLoop=1;jettySize=auto;html=1;fontSize=15;fontColor=#1D3557;strokeColor=#457B9D;fillColor=#A8DADC;" edge="1" parent="1" source="vnYy3EDP7MhGooYUGma_-289">
          <mxGeometry relative="1" as="geometry">
            <mxPoint x="880" y="936.68" as="targetPoint" />
          </mxGeometry>
        </mxCell>
        <mxCell id="vnYy3EDP7MhGooYUGma_-289" value="&lt;font style=&quot;font-size: 17px&quot;&gt;12&lt;/font&gt;" style="rounded=0;whiteSpace=wrap;html=1;fillColor=#A8DADC;strokeColor=#457B9D;fontColor=#1D3557;fontSize=15;" vertex="1" parent="1">
          <mxGeometry x="920" y="916.68" width="80" height="40" as="geometry" />
        </mxCell>
        <mxCell id="vnYy3EDP7MhGooYUGma_-290" value="" style="edgeStyle=orthogonalEdgeStyle;curved=0;rounded=1;sketch=0;orthogonalLoop=1;jettySize=auto;html=1;fontSize=15;fontColor=#1D3557;strokeColor=#457B9D;fillColor=#A8DADC;" edge="1" parent="1" source="vnYy3EDP7MhGooYUGma_-292" target="vnYy3EDP7MhGooYUGma_-293">
          <mxGeometry relative="1" as="geometry" />
        </mxCell>
        <mxCell id="vnYy3EDP7MhGooYUGma_-291" style="edgeStyle=orthogonalEdgeStyle;curved=0;rounded=1;sketch=0;orthogonalLoop=1;jettySize=auto;html=1;entryX=1;entryY=0.5;entryDx=0;entryDy=0;fontSize=15;fontColor=#1D3557;strokeColor=#457B9D;fillColor=#A8DADC;" edge="1" parent="1" source="vnYy3EDP7MhGooYUGma_-292" target="vnYy3EDP7MhGooYUGma_-289">
          <mxGeometry relative="1" as="geometry" />
        </mxCell>
        <mxCell id="vnYy3EDP7MhGooYUGma_-292" value="&lt;font style=&quot;font-size: 17px&quot;&gt;13&lt;/font&gt;" style="rounded=0;whiteSpace=wrap;html=1;fillColor=#A8DADC;strokeColor=#457B9D;fontColor=#1D3557;fontSize=15;" vertex="1" parent="1">
          <mxGeometry x="1040" y="916.68" width="80" height="40" as="geometry" />
        </mxCell>
        <mxCell id="vnYy3EDP7MhGooYUGma_-293" value="&lt;span style=&quot;font-size: 17px&quot;&gt;null&lt;/span&gt;" style="rounded=0;whiteSpace=wrap;html=1;fillColor=#A8DADC;strokeColor=#457B9D;fontColor=#1D3557;fontSize=15;" vertex="1" parent="1">
          <mxGeometry x="1160" y="916.68" width="80" height="40" as="geometry" />
        </mxCell>
        <mxCell id="vnYy3EDP7MhGooYUGma_-294" value="" style="edgeStyle=orthogonalEdgeStyle;curved=0;rounded=1;sketch=0;orthogonalLoop=1;jettySize=auto;html=1;fontSize=15;fontColor=#1D3557;strokeColor=#457B9D;fillColor=#A8DADC;" edge="1" parent="1" source="vnYy3EDP7MhGooYUGma_-295" target="vnYy3EDP7MhGooYUGma_-292">
          <mxGeometry relative="1" as="geometry" />
        </mxCell>
        <mxCell id="vnYy3EDP7MhGooYUGma_-295" value="&lt;font style=&quot;font-size: 17px&quot;&gt;last&lt;br&gt;&lt;/font&gt;" style="rounded=0;whiteSpace=wrap;html=1;fillColor=#A8DADC;strokeColor=#457B9D;fontColor=#1D3557;fontSize=15;" vertex="1" parent="1">
          <mxGeometry x="1040" y="836.68" width="80" height="40" as="geometry" />
        </mxCell>
        <mxCell id="vnYy3EDP7MhGooYUGma_-297" value="&lt;font style=&quot;font-size: 17px&quot;&gt;null&lt;br&gt;&lt;/font&gt;" style="rounded=0;whiteSpace=wrap;html=1;fillColor=#A8DADC;strokeColor=#457B9D;fontColor=#1D3557;fontSize=15;" vertex="1" parent="1">
          <mxGeometry x="680" y="856.68" width="80" height="40" as="geometry" />
        </mxCell>
        <mxCell id="vnYy3EDP7MhGooYUGma_-298" value="0" style="text;html=1;align=center;verticalAlign=middle;resizable=0;points=[];autosize=1;strokeColor=none;fontSize=17;fontColor=#1D3557;" vertex="1" parent="1">
          <mxGeometry x="825" y="971.68" width="30" height="30" as="geometry" />
        </mxCell>
        <mxCell id="vnYy3EDP7MhGooYUGma_-299" value="1" style="text;html=1;align=center;verticalAlign=middle;resizable=0;points=[];autosize=1;strokeColor=none;fontSize=17;fontColor=#1D3557;" vertex="1" parent="1">
          <mxGeometry x="945" y="971.68" width="30" height="30" as="geometry" />
        </mxCell>
        <mxCell id="vnYy3EDP7MhGooYUGma_-300" value="2" style="text;html=1;align=center;verticalAlign=middle;resizable=0;points=[];autosize=1;strokeColor=none;fontSize=17;fontColor=#1D3557;" vertex="1" parent="1">
          <mxGeometry x="1065" y="971.68" width="30" height="30" as="geometry" />
        </mxCell>
        <mxCell id="vnYy3EDP7MhGooYUGma_-383" value="" style="edgeStyle=orthogonalEdgeStyle;curved=0;rounded=1;sketch=0;orthogonalLoop=1;jettySize=auto;html=1;fontSize=17;fontColor=#1D3557;strokeColor=#457B9D;fillColor=#A8DADC;" edge="1" parent="1" source="vnYy3EDP7MhGooYUGma_-305" target="vnYy3EDP7MhGooYUGma_-371">
          <mxGeometry relative="1" as="geometry" />
        </mxCell>
        <mxCell id="vnYy3EDP7MhGooYUGma_-385" value="" style="edgeStyle=orthogonalEdgeStyle;curved=0;rounded=1;sketch=0;orthogonalLoop=1;jettySize=auto;html=1;fontSize=17;fontColor=#1D3557;strokeColor=#457B9D;fillColor=#A8DADC;" edge="1" parent="1" source="vnYy3EDP7MhGooYUGma_-305" target="vnYy3EDP7MhGooYUGma_-286">
          <mxGeometry relative="1" as="geometry" />
        </mxCell>
        <mxCell id="vnYy3EDP7MhGooYUGma_-305" value="&lt;span style=&quot;font-size: 17px&quot;&gt;11&lt;/span&gt;" style="rounded=0;whiteSpace=wrap;html=1;fillColor=#A8DADC;strokeColor=#457B9D;fontColor=#1D3557;fontSize=15;" vertex="1" parent="1">
          <mxGeometry x="800" y="786.68" width="80" height="40" as="geometry" />
        </mxCell>
        <mxCell id="vnYy3EDP7MhGooYUGma_-306" value="第三四步，设置索引0的上一个节点指向newNode,&lt;br&gt;维护first节点指向newNode" style="text;html=1;align=center;verticalAlign=middle;resizable=0;points=[];autosize=1;strokeColor=none;fontSize=17;fontColor=#1D3557;" vertex="1" parent="1">
          <mxGeometry x="1430" y="1124.18" width="390" height="40" as="geometry" />
        </mxCell>
        <mxCell id="vnYy3EDP7MhGooYUGma_-354" value="&lt;font style=&quot;font-size: 17px&quot;&gt;null&lt;br&gt;&lt;/font&gt;" style="rounded=0;whiteSpace=wrap;html=1;fillColor=#A8DADC;strokeColor=#457B9D;fontColor=#1D3557;fontSize=15;" vertex="1" parent="1">
          <mxGeometry x="680" y="604.18" width="80" height="40" as="geometry" />
        </mxCell>
        <mxCell id="vnYy3EDP7MhGooYUGma_-370" value="假设添加到索引为0的位置" style="text;html=1;align=center;verticalAlign=middle;resizable=0;points=[];autosize=1;strokeColor=none;fontSize=17;fontColor=#1D3557;" vertex="1" parent="1">
          <mxGeometry x="835" y="494.18" width="210" height="30" as="geometry" />
        </mxCell>
        <mxCell id="vnYy3EDP7MhGooYUGma_-372" value="" style="edgeStyle=orthogonalEdgeStyle;curved=0;rounded=1;sketch=0;orthogonalLoop=1;jettySize=auto;html=1;fontSize=17;fontColor=#1D3557;strokeColor=#457B9D;fillColor=#A8DADC;" edge="1" parent="1" source="vnYy3EDP7MhGooYUGma_-371" target="vnYy3EDP7MhGooYUGma_-297">
          <mxGeometry relative="1" as="geometry" />
        </mxCell>
        <mxCell id="vnYy3EDP7MhGooYUGma_-371" value="&lt;font style=&quot;font-size: 17px&quot;&gt;pred&lt;/font&gt;" style="rounded=0;whiteSpace=wrap;html=1;fillColor=#A8DADC;strokeColor=#457B9D;fontColor=#1D3557;fontSize=15;" vertex="1" parent="1">
          <mxGeometry x="680" y="786.68" width="80" height="40" as="geometry" />
        </mxCell>
        <mxCell id="vnYy3EDP7MhGooYUGma_-417" value="" style="edgeStyle=orthogonalEdgeStyle;curved=0;rounded=1;sketch=0;orthogonalLoop=1;jettySize=auto;html=1;fontSize=17;fontColor=#1D3557;strokeColor=#457B9D;fillColor=#A8DADC;" edge="1" parent="1" source="vnYy3EDP7MhGooYUGma_-388" target="vnYy3EDP7MhGooYUGma_-408">
          <mxGeometry relative="1" as="geometry" />
        </mxCell>
        <mxCell id="vnYy3EDP7MhGooYUGma_-388" value="&lt;font style=&quot;font-size: 17px&quot;&gt;first&lt;/font&gt;" style="rounded=0;whiteSpace=wrap;html=1;fillColor=#A8DADC;strokeColor=#457B9D;fontColor=#1D3557;fontSize=15;" vertex="1" parent="1">
          <mxGeometry x="820" y="1059.18" width="80" height="40" as="geometry" />
        </mxCell>
        <mxCell id="vnYy3EDP7MhGooYUGma_-389" value="" style="edgeStyle=orthogonalEdgeStyle;curved=0;rounded=1;sketch=0;orthogonalLoop=1;jettySize=auto;html=1;fontSize=15;fontColor=#1D3557;strokeColor=#457B9D;fillColor=#A8DADC;" edge="1" parent="1" source="vnYy3EDP7MhGooYUGma_-392" target="vnYy3EDP7MhGooYUGma_-395">
          <mxGeometry relative="1" as="geometry" />
        </mxCell>
        <mxCell id="vnYy3EDP7MhGooYUGma_-415" style="edgeStyle=orthogonalEdgeStyle;curved=0;rounded=1;sketch=0;orthogonalLoop=1;jettySize=auto;html=1;entryX=1;entryY=0.5;entryDx=0;entryDy=0;fontSize=17;fontColor=#1D3557;strokeColor=#457B9D;fillColor=#A8DADC;" edge="1" parent="1" source="vnYy3EDP7MhGooYUGma_-392" target="vnYy3EDP7MhGooYUGma_-408">
          <mxGeometry relative="1" as="geometry" />
        </mxCell>
        <mxCell id="vnYy3EDP7MhGooYUGma_-392" value="&lt;span style=&quot;font-size: 17px&quot;&gt;10&lt;/span&gt;" style="rounded=0;whiteSpace=wrap;html=1;fillColor=#A8DADC;strokeColor=#457B9D;fontColor=#1D3557;fontSize=15;" vertex="1" parent="1">
          <mxGeometry x="950" y="1164.18" width="80" height="40" as="geometry" />
        </mxCell>
        <mxCell id="vnYy3EDP7MhGooYUGma_-393" value="" style="edgeStyle=orthogonalEdgeStyle;curved=0;rounded=1;sketch=0;orthogonalLoop=1;jettySize=auto;html=1;fontSize=15;fontColor=#1D3557;strokeColor=#457B9D;fillColor=#A8DADC;" edge="1" parent="1" source="vnYy3EDP7MhGooYUGma_-395" target="vnYy3EDP7MhGooYUGma_-398">
          <mxGeometry relative="1" as="geometry" />
        </mxCell>
        <mxCell id="vnYy3EDP7MhGooYUGma_-395" value="&lt;font style=&quot;font-size: 17px&quot;&gt;12&lt;/font&gt;" style="rounded=0;whiteSpace=wrap;html=1;fillColor=#A8DADC;strokeColor=#457B9D;fontColor=#1D3557;fontSize=15;" vertex="1" parent="1">
          <mxGeometry x="1070" y="1164.18" width="80" height="40" as="geometry" />
        </mxCell>
        <mxCell id="vnYy3EDP7MhGooYUGma_-396" value="" style="edgeStyle=orthogonalEdgeStyle;curved=0;rounded=1;sketch=0;orthogonalLoop=1;jettySize=auto;html=1;fontSize=15;fontColor=#1D3557;strokeColor=#457B9D;fillColor=#A8DADC;" edge="1" parent="1" source="vnYy3EDP7MhGooYUGma_-398" target="vnYy3EDP7MhGooYUGma_-399">
          <mxGeometry relative="1" as="geometry" />
        </mxCell>
        <mxCell id="vnYy3EDP7MhGooYUGma_-397" style="edgeStyle=orthogonalEdgeStyle;curved=0;rounded=1;sketch=0;orthogonalLoop=1;jettySize=auto;html=1;entryX=1;entryY=0.5;entryDx=0;entryDy=0;fontSize=15;fontColor=#1D3557;strokeColor=#457B9D;fillColor=#A8DADC;" edge="1" parent="1" source="vnYy3EDP7MhGooYUGma_-398" target="vnYy3EDP7MhGooYUGma_-395">
          <mxGeometry relative="1" as="geometry" />
        </mxCell>
        <mxCell id="vnYy3EDP7MhGooYUGma_-398" value="&lt;font style=&quot;font-size: 17px&quot;&gt;13&lt;/font&gt;" style="rounded=0;whiteSpace=wrap;html=1;fillColor=#A8DADC;strokeColor=#457B9D;fontColor=#1D3557;fontSize=15;" vertex="1" parent="1">
          <mxGeometry x="1190" y="1164.18" width="80" height="40" as="geometry" />
        </mxCell>
        <mxCell id="vnYy3EDP7MhGooYUGma_-399" value="&lt;span style=&quot;font-size: 17px&quot;&gt;null&lt;/span&gt;" style="rounded=0;whiteSpace=wrap;html=1;fillColor=#A8DADC;strokeColor=#457B9D;fontColor=#1D3557;fontSize=15;" vertex="1" parent="1">
          <mxGeometry x="1310" y="1164.18" width="80" height="40" as="geometry" />
        </mxCell>
        <mxCell id="vnYy3EDP7MhGooYUGma_-400" value="" style="edgeStyle=orthogonalEdgeStyle;curved=0;rounded=1;sketch=0;orthogonalLoop=1;jettySize=auto;html=1;fontSize=15;fontColor=#1D3557;strokeColor=#457B9D;fillColor=#A8DADC;" edge="1" parent="1" source="vnYy3EDP7MhGooYUGma_-401" target="vnYy3EDP7MhGooYUGma_-398">
          <mxGeometry relative="1" as="geometry" />
        </mxCell>
        <mxCell id="vnYy3EDP7MhGooYUGma_-401" value="&lt;font style=&quot;font-size: 17px&quot;&gt;last&lt;br&gt;&lt;/font&gt;" style="rounded=0;whiteSpace=wrap;html=1;fillColor=#A8DADC;strokeColor=#457B9D;fontColor=#1D3557;fontSize=15;" vertex="1" parent="1">
          <mxGeometry x="1190" y="1074.18" width="80" height="40" as="geometry" />
        </mxCell>
        <mxCell id="vnYy3EDP7MhGooYUGma_-402" value="&lt;font style=&quot;font-size: 17px&quot;&gt;null&lt;br&gt;&lt;/font&gt;" style="rounded=0;whiteSpace=wrap;html=1;fillColor=#A8DADC;strokeColor=#457B9D;fontColor=#1D3557;fontSize=15;" vertex="1" parent="1">
          <mxGeometry x="680" y="1164.18" width="80" height="40" as="geometry" />
        </mxCell>
        <mxCell id="vnYy3EDP7MhGooYUGma_-403" value="0" style="text;html=1;align=center;verticalAlign=middle;resizable=0;points=[];autosize=1;strokeColor=none;fontSize=17;fontColor=#1D3557;" vertex="1" parent="1">
          <mxGeometry x="855" y="1219.18" width="30" height="30" as="geometry" />
        </mxCell>
        <mxCell id="vnYy3EDP7MhGooYUGma_-404" value="1" style="text;html=1;align=center;verticalAlign=middle;resizable=0;points=[];autosize=1;strokeColor=none;fontSize=17;fontColor=#1D3557;" vertex="1" parent="1">
          <mxGeometry x="975" y="1219.18" width="30" height="30" as="geometry" />
        </mxCell>
        <mxCell id="vnYy3EDP7MhGooYUGma_-405" value="2" style="text;html=1;align=center;verticalAlign=middle;resizable=0;points=[];autosize=1;strokeColor=none;fontSize=17;fontColor=#1D3557;" vertex="1" parent="1">
          <mxGeometry x="1095" y="1219.18" width="30" height="30" as="geometry" />
        </mxCell>
        <mxCell id="vnYy3EDP7MhGooYUGma_-414" style="edgeStyle=orthogonalEdgeStyle;curved=0;rounded=1;sketch=0;orthogonalLoop=1;jettySize=auto;html=1;exitX=1;exitY=0.5;exitDx=0;exitDy=0;entryX=0;entryY=0.5;entryDx=0;entryDy=0;fontSize=17;fontColor=#1D3557;strokeColor=#457B9D;fillColor=#A8DADC;" edge="1" parent="1" source="vnYy3EDP7MhGooYUGma_-408" target="vnYy3EDP7MhGooYUGma_-392">
          <mxGeometry relative="1" as="geometry" />
        </mxCell>
        <mxCell id="vnYy3EDP7MhGooYUGma_-418" value="prev" style="edgeStyle=orthogonalEdgeStyle;curved=0;rounded=1;sketch=0;orthogonalLoop=1;jettySize=auto;html=1;fontSize=17;fontColor=#1D3557;strokeColor=#457B9D;fillColor=#A8DADC;" edge="1" parent="1" source="vnYy3EDP7MhGooYUGma_-408" target="vnYy3EDP7MhGooYUGma_-402">
          <mxGeometry relative="1" as="geometry" />
        </mxCell>
        <mxCell id="vnYy3EDP7MhGooYUGma_-408" value="&lt;span style=&quot;font-size: 17px&quot;&gt;11&lt;/span&gt;" style="rounded=0;whiteSpace=wrap;html=1;fillColor=#A8DADC;strokeColor=#457B9D;fontColor=#1D3557;fontSize=15;" vertex="1" parent="1">
          <mxGeometry x="820" y="1164.18" width="80" height="40" as="geometry" />
        </mxCell>
        <mxCell id="vnYy3EDP7MhGooYUGma_-416" value="3" style="text;html=1;align=center;verticalAlign=middle;resizable=0;points=[];autosize=1;strokeColor=none;fontSize=17;fontColor=#1D3557;" vertex="1" parent="1">
          <mxGeometry x="1215" y="1219.18" width="30" height="30" as="geometry" />
        </mxCell>
        <mxCell id="vnYy3EDP7MhGooYUGma_-419" value="第一步，pred指向索引为0的上一个节点" style="text;html=1;align=center;verticalAlign=middle;resizable=0;points=[];autosize=1;strokeColor=none;fontSize=17;fontColor=#1D3557;" vertex="1" parent="1">
          <mxGeometry x="1390" y="654.18" width="310" height="30" as="geometry" />
        </mxCell>
      </root>
    </mxGraphModel>
  </diagram>
</mxfile>
